<?xml version="1.0" encoding="UTF-8" standalone="no"?>
<!-- Created with Inkscape (http://www.inkscape.org/) -->

<svg
   xmlns:dc="http://purl.org/dc/elements/1.1/"
   xmlns:cc="http://creativecommons.org/ns#"
   xmlns:rdf="http://www.w3.org/1999/02/22-rdf-syntax-ns#"
   xmlns:svg="http://www.w3.org/2000/svg"
   xmlns="http://www.w3.org/2000/svg"
   xmlns:sodipodi="http://sodipodi.sourceforge.net/DTD/sodipodi-0.dtd"
   xmlns:inkscape="http://www.inkscape.org/namespaces/inkscape"
   width="600mm"
   height="200mm"
   viewBox="0 0 2125.9843 708.66141"
   id="svg2"
   version="1.1"
   inkscape:version="0.91 r13725"
   sodipodi:docname="2016-07-20 Timeable logo full.svg">
  <defs
     id="defs4" />
  <sodipodi:namedview
     id="base"
     pagecolor="#ffffff"
     bordercolor="#666666"
     borderopacity="1.0"
     inkscape:pageopacity="0.0"
     inkscape:pageshadow="2"
     inkscape:zoom="0.49497475"
     inkscape:cx="1158.1061"
     inkscape:cy="504.30488"
     inkscape:document-units="px"
     inkscape:current-layer="layer1"
     showgrid="false"
     inkscape:window-width="1920"
     inkscape:window-height="1137"
     inkscape:window-x="1912"
     inkscape:window-y="-8"
     inkscape:window-maximized="1" />
  <metadata
     id="metadata7">
    <rdf:RDF>
      <cc:Work
         rdf:about="">
        <dc:format>image/svg+xml</dc:format>
        <dc:type
           rdf:resource="http://purl.org/dc/dcmitype/StillImage" />
        <dc:title></dc:title>
      </cc:Work>
    </rdf:RDF>
  </metadata>
  <g
     inkscape:label="Layer 1"
     inkscape:groupmode="layer"
     id="layer1"
     transform="translate(0,-343.70083)">
    <flowRoot
       xml:space="preserve"
       id="flowRoot4843"
       style="fill:black;stroke:none;stroke-opacity:1;stroke-width:1px;stroke-linejoin:miter;stroke-linecap:butt;fill-opacity:1;font-family:sans-serif;font-style:normal;font-weight:normal;font-size:40px;line-height:125%;letter-spacing:0px;word-spacing:0px"><flowRegion
         id="flowRegion4845"><rect
           id="rect4847"
           width="4400"
           height="2897.1428"
           x="-925.71429"
           y="-697.05286" /></flowRegion><flowPara
         id="flowPara4849"></flowPara></flowRoot>    <g
       id="g4867"
       transform="translate(0,-16.000002)">
      <text
         sodipodi:linespacing="125%"
         id="text3336"
         y="876.91205"
         x="501.84421"
         style="font-style:normal;font-variant:normal;font-weight:bold;font-stretch:normal;font-size:400.00006104px;line-height:125%;font-family:Aller;-inkscape-font-specification:'Aller Bold';letter-spacing:-27.66000748px;word-spacing:0px;fill:#000000;fill-opacity:1;stroke:none;stroke-width:1px;stroke-linecap:butt;stroke-linejoin:miter;stroke-opacity:1"
         xml:space="preserve"><tspan
           style="font-style:normal;font-variant:normal;font-weight:bold;font-stretch:normal;font-size:400.00006104px;font-family:Aller;-inkscape-font-specification:'Aller Bold';letter-spacing:-27.66000748px"
           y="876.91205"
           x="501.84421"
           id="tspan3338"
           sodipodi:role="line"><tspan
             style="font-size:400.00006104px;fill:#8e0000;fill-opacity:1"
             id="tspan4148">Time</tspan><tspan
             id="tspan4142"
             style="font-size:400.00006104px;fill:#424242;fill-opacity:1">able</tspan></tspan></text>
      <g
         id="g4863">
        <path
           style="fill:#8e0000;fill-opacity:1"
           d="m 284.18579,613.53313 a 118.09195,118.09195 0 0 0 -0.55965,0.0211 l 0,116.9235 -0.014,0.002 0.014,0.0936 0,0.13114 -112.17469,35.68143 a 118.09195,118.09195 0 0 0 45.63792,62.38978 c 0.002,0.001 0.005,0.004 0.007,0.005 a 118.09195,118.09195 0 0 0 1.49395,0.97644 118.09195,118.09195 0 0 0 0.012,0.007 118.09195,118.09195 0 0 0 7.35733,4.5076 118.09195,118.09195 0 0 0 3.78404,2.03718 118.09195,118.09195 0 0 0 0.007,0.005 118.09195,118.09195 0 0 0 5.70182,2.75374 118.09195,118.09195 0 0 0 6.46987,2.68816 118.09195,118.09195 0 0 0 3.99712,1.45883 118.09195,118.09195 0 0 0 0.007,0.002 118.09195,118.09195 0 0 0 6.28721,1.97398 118.09195,118.09195 0 0 0 7.27772,1.85687 118.09195,118.09195 0 0 0 2.73735,0.54326 118.09195,118.09195 0 0 0 21.95724,2.12619 A 118.09195,118.09195 0 0 0 402.27853,731.62562 118.09195,118.09195 0 0 0 284.18658,613.53367 Z M 252.21348,845.1907 c -2.11665,-0.60323 -4.21368,-1.25957 -6.28721,-1.97398 a 118.09195,118.09195 0 0 0 6.28721,1.97398 z m -10.29136,-3.43515 c -2.18365,-0.83905 -4.34377,-1.72721 -6.46986,-2.68816 a 118.09195,118.09195 0 0 0 6.46986,2.68816 z m -70.47067,-75.36931 a 118.09195,118.09195 0 0 1 -2.60152,-10.06189 118.09195,118.09195 0 0 0 2.60152,10.06189 z M 283.62614,613.55421 a 118.09195,118.09195 0 0 0 -10.06422,0.55262 118.09195,118.09195 0 0 1 10.06422,-0.55262 z m -15.08229,1.16143 a 118.09195,118.09195 0 0 0 -6.6806,1.04203 118.09195,118.09195 0 0 1 6.68061,-1.04203 z m -11.58393,2.14256 a 118.09195,118.09195 0 0 0 -6.53543,1.70002 118.09195,118.09195 0 0 1 6.53543,-1.70002 z m -11.38256,3.31105 a 118.09195,118.09195 0 0 0 -6.2474,2.31351 118.09195,118.09195 0 0 1 6.2474,-2.31351 z m -10.95404,4.42096 a 118.09195,118.09195 0 0 0 -5.96406,2.9153 118.09195,118.09195 0 0 1 5.96406,-2.9153 z m -10.43419,5.47937 a 118.09195,118.09195 0 0 0 -5.66202,3.51005 118.09195,118.09195 0 0 1 5.66202,-3.51005 z m -9.84412,6.50029 a 118.09195,118.09195 0 0 0 -5.24285,4.02289 118.09195,118.09195 0 0 1 5.24285,-4.02289 z m -9.22593,7.52359 a 118.09195,118.09195 0 0 0 -4.70663,4.42798 118.09195,118.09195 0 0 1 4.70663,-4.42798 z m -8.34549,8.33377 a 118.09195,118.09195 0 0 0 -4.24299,4.87524 118.09195,118.09195 0 0 1 4.24299,-4.87524 z m -7.50017,9.16038 a 118.09195,118.09195 0 0 0 -3.67867,5.19367 118.09195,118.09195 0 0 1 3.67867,-5.19367 z m -6.55415,9.88625 a 118.09195,118.09195 0 0 0 -3.10263,5.46766 118.09195,118.09195 0 0 1 3.10263,-5.46766 z m -5.50513,10.44357 a 118.09195,118.09195 0 0 0 -2.52425,5.71118 118.09195,118.09195 0 0 1 2.52425,-5.71118 z m -4.45139,10.99152 a 118.09195,118.09195 0 0 0 -1.91309,5.84231 118.09195,118.09195 0 0 1 1.91309,-5.84231 z m -3.3204,11.35913 a 118.09195,118.09195 0 0 0 -1.30662,5.95236 118.09195,118.09195 0 0 1 1.30662,-5.95236 z m -2.16365,11.63076 a 118.09195,118.09195 0 0 0 -0.69779,5.97344 118.09195,118.09195 0 0 1 0.69779,-5.97344 z m -1.18485,15.72624 a 118.09195,118.09195 0 0 0 0.56434,10.57937 118.09195,118.09195 0 0 1 -0.56434,-10.57937 z m 1.01158,14.26039 a 118.09195,118.09195 0 0 0 1.33004,8.58432 118.09195,118.09195 0 0 1 -1.33004,-8.58432 z"
           id="circle4824"
           inkscape:connector-curvature="0" />
        <path
           style="fill:#424242;fill-opacity:1"
           d="M 284.1862,555.51203 A 175.00032,175.00032 0 0 0 109.18617,730.51207 175.00032,175.00032 0 0 0 284.1862,905.5121 175.00032,175.00032 0 0 0 459.18622,730.51207 175.00032,175.00032 0 0 0 284.1862,555.51203 Z m -10.29371,30.63525 0,20.22914 19.98093,0 0,-20.08162 a 144.42068,145.63174 0 0 1 134.08747,135.43624 l -16.91577,0 0,19.98328 16.74718,0 A 144.42068,145.63174 0 0 1 293.87342,876.69394 l 0,-17.80793 -19.98093,0 0,17.66274 A 144.42068,145.63174 0 0 1 139.82377,741.71432 l 17.50116,0 0,-19.98328 -17.38409,0 A 144.42068,145.63174 0 0 1 273.89249,586.14728 Z"
           id="path4169"
           inkscape:connector-curvature="0" />
      </g>
    </g>
  </g>
</svg>
